<svg viewBox="0 0 200 280" height="280" width="200" xmlns="http://www.w3.org/2000/svg">
  
  <rect stroke-width="9" stroke="#1C2C2E" fill="#FAF8F2" ry="15" rx="15" height="280" width="200"></rect>
  
  
  <rect stroke-width="3" stroke="#EDE4D2" fill="none" ry="10" rx="10" height="262" width="182" y="9" x="9"></rect>

  
  
  <g transform="translate(100,115)">
    
    <rect stroke-width="4" stroke="#1C2C2E" fill="#26334A" rx="7" height="73" width="54" y="33" x="-27"></rect>

    
    <line stroke-linecap="round" stroke-width="6" stroke="#F4C430" y2="18" x2="49" y1="40" x1="27"></line>
    
    <circle stroke-width="2" stroke="#1C2C2E" fill="#E74C3C" r="4.5" cy="16" cx="49"></circle>

    
    <rect stroke-width="3" stroke="#1C2C2E" fill="#F8D9C8" rx="3" height="12" width="20" y="24" x="-10"></rect>

    
    <ellipse stroke-width="3" stroke="#1C2C2E" fill="#F8D9C8" ry="21" rx="19" cy="14" cx="0"></ellipse>

    
    <path stroke="none" fill="#26334A" d="M-13,24 Q-11,31 -5,33 Q0,34 5,33 Q13,30 13,24"></path>

    
    <circle fill="#1C2C2E" r="2.1" cy="11" cx="-7"></circle>
    <circle fill="#1C2C2E" r="2.1" cy="11" cx="7"></circle>

    
    <path stroke-width="1.8" stroke="#1C2C2E" fill="none" d="M-6,21 Q0,22.5 6,21"></path>

    
    
    <rect stroke-width="3.5" stroke="#1C2C2E" fill="#F4C430" rx="2" height="9" width="47" y="-17" x="-23.5"></rect>

    
    <path stroke-width="3.5" stroke="#1C2C2E" fill="#F4C430" d="M-23.5,-8 L-19,-29 L-8,-14 L0,-32 L8,-14 L19,-29 L23.5,-8"></path>

    
    <rect stroke-width="2" stroke="#1C2C2E" fill="#F4C430" height="8" width="4" y="-36" x="-2"></rect>
    <rect stroke-width="2" stroke="#1C2C2E" fill="#F4C430" height="3" width="10" y="-33" x="-5"></rect>

    
    <circle fill="#E74C3C" r="2.6" cy="-23" cx="-13"></circle>
    <circle fill="#E74C3C" r="3" cy="-32" cx="0"></circle>
    <circle fill="#E74C3C" r="2.6" cy="-23" cx="13"></circle>
  </g>
</svg>
